<?xml version="1.0" encoding="UTF-8" standalone="no"?>
<svg
   xmlns:dc="http://purl.org/dc/elements/1.1/"
   xmlns:cc="http://creativecommons.org/ns#"
   xmlns:rdf="http://www.w3.org/1999/02/22-rdf-syntax-ns#"
   xmlns:svg="http://www.w3.org/2000/svg"
   xmlns="http://www.w3.org/2000/svg"
   xmlns:sodipodi="http://sodipodi.sourceforge.net/DTD/sodipodi-0.dtd"
   xmlns:inkscape="http://www.inkscape.org/namespaces/inkscape"
   version="1.1"
   id="svg2"
   xml:space="preserve"
   width="666.66669"
   height="666.66669"
   viewBox="0 0 666.66669 666.66669"
   sodipodi:docname="3304444.ai"><metadata
     id="metadata8"><rdf:RDF><cc:Work
         rdf:about=""><dc:format>image/svg+xml</dc:format><dc:type
           rdf:resource="http://purl.org/dc/dcmitype/StillImage" /></cc:Work></rdf:RDF></metadata><defs
     id="defs6"><clipPath
       clipPathUnits="userSpaceOnUse"
       id="clipPath32"><path
         d="M 0,500 H 500 V 0 H 0 Z"
         id="path30" /></clipPath><clipPath
       clipPathUnits="userSpaceOnUse"
       id="clipPath198"><path
         d="M 0,500 H 500 V 0 H 0 Z"
         id="path196" /></clipPath><clipPath
       clipPathUnits="userSpaceOnUse"
       id="clipPath210"><path
         d="M 86.1298,397.852 H 398.009 V 178.739 H 86.1298 Z"
         id="path208" /></clipPath><clipPath
       clipPathUnits="userSpaceOnUse"
       id="clipPath226"><path
         d="M 0,500 H 500 V 0 H 0 Z"
         id="path224" /></clipPath><clipPath
       clipPathUnits="userSpaceOnUse"
       id="clipPath246"><path
         d="M 0,500 H 500 V 0 H 0 Z"
         id="path244" /></clipPath><clipPath
       clipPathUnits="userSpaceOnUse"
       id="clipPath270"><path
         d="m 206.613,361.274 h 33.608 v -31.635 h -33.608 z"
         id="path268" /></clipPath><clipPath
       clipPathUnits="userSpaceOnUse"
       id="clipPath286"><path
         d="m 217.109,350.044 h 19.054 v -20.406 h -19.054 z"
         id="path284" /></clipPath><clipPath
       clipPathUnits="userSpaceOnUse"
       id="clipPath310"><path
         d="m 195.323,114.93 h 10.432 v -13.678 h -10.432 z"
         id="path308" /></clipPath><clipPath
       clipPathUnits="userSpaceOnUse"
       id="clipPath326"><path
         d="m 261.136,112.467 h 9.556 v -10.101 h -9.556 z"
         id="path324" /></clipPath><clipPath
       clipPathUnits="userSpaceOnUse"
       id="clipPath346"><path
         d="m 219.903,362.384 h 54.692 v -77.518 h -54.692 z"
         id="path344" /></clipPath><clipPath
       clipPathUnits="userSpaceOnUse"
       id="clipPath362"><path
         d="m 263.194,345.89 h 8.434 v -19.564 h -8.434 z"
         id="path360" /></clipPath><clipPath
       clipPathUnits="userSpaceOnUse"
       id="clipPath382"><path
         d="m 246.738,379.012 h 7.502 v -8.911 h -7.502 z"
         id="path380" /></clipPath><clipPath
       clipPathUnits="userSpaceOnUse"
       id="clipPath426"><path
         d="m 193.079,288.01 h 58.282 V 103.699 h -58.282 z"
         id="path424" /></clipPath><clipPath
       clipPathUnits="userSpaceOnUse"
       id="clipPath442"><path
         d="m 233.535,269.736 h 11.429 v -50.542 h -11.429 z"
         id="path440" /></clipPath><clipPath
       clipPathUnits="userSpaceOnUse"
       id="clipPath462"><path
         d="m 237.693,286.893 h 36.122 V 104.322 h -36.122 z"
         id="path460" /></clipPath><clipPath
       clipPathUnits="userSpaceOnUse"
       id="clipPath530"><path
         d="m 261.597,358.402 h 27.886 v -34.815 h -27.886 z"
         id="path528" /></clipPath></defs><sodipodi:namedview
     pagecolor="#ffffff"
     bordercolor="#666666"
     borderopacity="1"
     objecttolerance="10"
     gridtolerance="10"
     guidetolerance="10"
     inkscape:pageopacity="0"
     inkscape:pageshadow="2"
     inkscape:window-width="640"
     inkscape:window-height="480"
     id="namedview4" /><g
     id="g10"
     inkscape:groupmode="layer"
     inkscape:label="3304444"
     transform="matrix(1.3333333,0,0,-1.3333333,0,666.66667)"><path
       d="m 0,117.351 h 500 v 0.25 H 0 Z"
       style="fill:#ececec;fill-opacity:1;fill-rule:nonzero;stroke:none"
       id="path12" /><path
       d="m 410.767,107.827 h 33.122 v 0.25 h -33.122 z"
       style="fill:#ececec;fill-opacity:1;fill-rule:nonzero;stroke:none"
       id="path14" /><path
       d="m 131.471,104.444 h 49.863 v 0.249 h -49.863 z"
       style="fill:#ececec;fill-opacity:1;fill-rule:nonzero;stroke:none"
       id="path16" /><path
       d="m 380.241,98.542 h 29.525 v 0.249 h -29.525 z"
       style="fill:#ececec;fill-opacity:1;fill-rule:nonzero;stroke:none"
       id="path18" /><path
       d="m 52.459,100.221 h 21.596 v 0.25 H 52.459 Z"
       style="fill:#ececec;fill-opacity:1;fill-rule:nonzero;stroke:none"
       id="path20" /><path
       d="m 82.959,100.221 h 38.374 v 0.25 H 82.959 Z"
       style="fill:#ececec;fill-opacity:1;fill-rule:nonzero;stroke:none"
       id="path22" /><path
       d="m 237.544,110.542 h 93.676 v 0.25 h -93.676 z"
       style="fill:#ececec;fill-opacity:1;fill-rule:nonzero;stroke:none"
       id="path24" /><g
       id="g26"><g
         id="g28"
         clip-path="url(#clipPath32)"><g
           id="g34"
           transform="translate(43.915,444.7969)"><path
             d="m 0,0 c -3.01,0 -5.458,-2.448 -5.458,-5.458 v -271.431 c 0,-3.01 2.448,-5.458 5.458,-5.458 h 193.099 c 3.008,0 5.457,2.448 5.457,5.458 V -5.458 c 0,3.01 -2.449,5.458 -5.457,5.458 z M 193.099,-282.597 H 0 c -3.147,0 -5.708,2.56 -5.708,5.708 V -5.458 c 0,3.147 2.561,5.708 5.708,5.708 h 193.099 c 3.146,0 5.707,-2.561 5.707,-5.708 v -271.431 c 0,-3.148 -2.561,-5.708 -5.707,-5.708"
             style="fill:#ececec;fill-opacity:1;fill-rule:nonzero;stroke:none"
             id="path36" /></g><g
           id="g38"
           transform="translate(260.2119,444.7969)"><path
             d="m 0,0 c -3.009,0 -5.457,-2.448 -5.457,-5.458 v -271.431 c 0,-3.01 2.448,-5.458 5.457,-5.458 h 193.099 c 3.009,0 5.458,2.448 5.458,5.458 V -5.458 c 0,3.01 -2.449,5.458 -5.458,5.458 z M 193.099,-282.597 H 0 c -3.146,0 -5.707,2.56 -5.707,5.708 V -5.458 c 0,3.147 2.561,5.708 5.707,5.708 h 193.099 c 3.147,0 5.708,-2.561 5.708,-5.708 v -271.431 c 0,-3.148 -2.561,-5.708 -5.708,-5.708"
             style="fill:#ececec;fill-opacity:1;fill-rule:nonzero;stroke:none"
             id="path40" /></g><path
           d="m 132.948,123.262 h 13.014 v 163.634 h -13.014 z"
           style="fill:#f0f0f0;fill-opacity:1;fill-rule:nonzero;stroke:none"
           id="path42" /><path
           d="m 70.439,123.262 h 72.088 v -5.645 H 70.439 Z"
           style="fill:#f0f0f0;fill-opacity:1;fill-rule:nonzero;stroke:none"
           id="path44" /><path
           d="M 132.948,123.262 H 67.006 v 163.634 h 65.942 z"
           style="fill:#fafafa;fill-opacity:1;fill-rule:nonzero;stroke:none"
           id="path46" /><path
           d="m 125.917,172.471 h -51.88 v 29.219 h 51.88 z"
           style="fill:#f0f0f0;fill-opacity:1;fill-rule:nonzero;stroke:none"
           id="path48" /><path
           d="m 125.917,134.228 h -51.88 v 29.219 h 51.88 z"
           style="fill:#f0f0f0;fill-opacity:1;fill-rule:nonzero;stroke:none"
           id="path50" /><g
           id="g52"
           transform="translate(92.728,198.4414)"><path
             d="m 0,0 h 14.498 c 0.869,0 1.58,0.711 1.58,1.581 v 0.845 c 0,0.87 -0.711,1.581 -1.58,1.581 H 0 c -0.869,0 -1.581,-0.711 -1.581,-1.581 V 1.581 C -1.581,0.711 -0.869,0 0,0"
             style="fill:#fafafa;fill-opacity:1;fill-rule:nonzero;stroke:none"
             id="path54" /></g><g
           id="g56"
           transform="translate(92.728,160.1987)"><path
             d="m 0,0 h 14.498 c 0.869,0 1.58,0.711 1.58,1.581 v 0.845 c 0,0.87 -0.711,1.581 -1.58,1.581 H 0 c -0.869,0 -1.581,-0.711 -1.581,-1.581 V 1.581 C -1.581,0.711 -0.869,0 0,0"
             style="fill:#fafafa;fill-opacity:1;fill-rule:nonzero;stroke:none"
             id="path58" /></g><path
           d="m 125.917,248.654 h -51.88 v 29.218 h 51.88 z"
           style="fill:#f0f0f0;fill-opacity:1;fill-rule:nonzero;stroke:none"
           id="path60" /><path
           d="m 125.917,210.713 h -51.88 v 29.219 h 51.88 z"
           style="fill:#f0f0f0;fill-opacity:1;fill-rule:nonzero;stroke:none"
           id="path62" /><g
           id="g64"
           transform="translate(92.728,274.6245)"><path
             d="m 0,0 h 14.498 c 0.869,0 1.58,0.711 1.58,1.58 v 0.846 c 0,0.869 -0.711,1.581 -1.58,1.581 H 0 c -0.869,0 -1.581,-0.712 -1.581,-1.581 V 1.58 C -1.581,0.711 -0.869,0 0,0"
             style="fill:#fafafa;fill-opacity:1;fill-rule:nonzero;stroke:none"
             id="path66" /></g><g
           id="g68"
           transform="translate(92.728,236.6841)"><path
             d="m 0,0 h 14.498 c 0.869,0 1.58,0.711 1.58,1.581 v 0.845 c 0,0.869 -0.711,1.581 -1.58,1.581 H 0 c -0.869,0 -1.581,-0.712 -1.581,-1.581 V 1.581 C -1.581,0.711 -0.869,0 0,0"
             style="fill:#fafafa;fill-opacity:1;fill-rule:nonzero;stroke:none"
             id="path70" /></g><path
           d="m 205.109,123.262 h 21.526 v 163.634 h -21.526 z"
           style="fill:#f0f0f0;fill-opacity:1;fill-rule:nonzero;stroke:none"
           id="path72" /><path
           d="m 142.601,123.262 h 80.039 v -5.645 h -80.039 z"
           style="fill:#f0f0f0;fill-opacity:1;fill-rule:nonzero;stroke:none"
           id="path74" /><path
           d="m 205.109,123.262 h -65.942 v 163.634 h 65.942 z"
           style="fill:#fafafa;fill-opacity:1;fill-rule:nonzero;stroke:none"
           id="path76" /><path
           d="m 198.079,172.471 h -51.88 v 29.219 h 51.88 z"
           style="fill:#f0f0f0;fill-opacity:1;fill-rule:nonzero;stroke:none"
           id="path78" /><path
           d="m 198.079,134.228 h -51.88 v 29.219 h 51.88 z"
           style="fill:#f0f0f0;fill-opacity:1;fill-rule:nonzero;stroke:none"
           id="path80" /><g
           id="g82"
           transform="translate(164.8896,198.4414)"><path
             d="m 0,0 h 14.498 c 0.869,0 1.58,0.711 1.58,1.581 v 0.845 c 0,0.87 -0.711,1.581 -1.58,1.581 H 0 c -0.869,0 -1.581,-0.711 -1.581,-1.581 V 1.581 C -1.581,0.711 -0.869,0 0,0"
             style="fill:#fafafa;fill-opacity:1;fill-rule:nonzero;stroke:none"
             id="path84" /></g><g
           id="g86"
           transform="translate(164.8896,160.1987)"><path
             d="m 0,0 h 14.498 c 0.869,0 1.58,0.711 1.58,1.581 v 0.845 c 0,0.87 -0.711,1.581 -1.58,1.581 H 0 c -0.869,0 -1.581,-0.711 -1.581,-1.581 V 1.581 C -1.581,0.711 -0.869,0 0,0"
             style="fill:#fafafa;fill-opacity:1;fill-rule:nonzero;stroke:none"
             id="path88" /></g><path
           d="m 198.079,248.654 h -51.88 v 29.218 h 51.88 z"
           style="fill:#f0f0f0;fill-opacity:1;fill-rule:nonzero;stroke:none"
           id="path90" /><path
           d="m 198.079,210.713 h -51.88 v 29.219 h 51.88 z"
           style="fill:#f0f0f0;fill-opacity:1;fill-rule:nonzero;stroke:none"
           id="path92" /><g
           id="g94"
           transform="translate(164.8896,274.6245)"><path
             d="m 0,0 h 14.498 c 0.869,0 1.58,0.711 1.58,1.58 v 0.846 c 0,0.869 -0.711,1.581 -1.58,1.581 H 0 c -0.869,0 -1.581,-0.712 -1.581,-1.581 V 1.58 C -1.581,0.711 -0.869,0 0,0"
             style="fill:#fafafa;fill-opacity:1;fill-rule:nonzero;stroke:none"
             id="path96" /></g><g
           id="g98"
           transform="translate(164.8896,236.6841)"><path
             d="m 0,0 h 14.498 c 0.869,0 1.58,0.711 1.58,1.581 v 0.845 c 0,0.869 -0.711,1.581 -1.58,1.581 H 0 c -0.869,0 -1.581,-0.712 -1.581,-1.581 V 1.581 C -1.581,0.711 -0.869,0 0,0"
             style="fill:#fafafa;fill-opacity:1;fill-rule:nonzero;stroke:none"
             id="path100" /></g><path
           d="m 65.014,339.226 h 169.169 v 70.661 H 65.014 Z"
           style="fill:#e7e7e7;fill-opacity:1;fill-rule:nonzero;stroke:none"
           id="path102" /><path
           d="m 57.74,339.226 h 174.51 v 70.661 H 57.74 Z"
           style="fill:#f0f0f0;fill-opacity:1;fill-rule:nonzero;stroke:none"
           id="path104" /><path
           d="M 223.031,400.667 H 66.959 v -52.223 h 156.072 z"
           style="fill:#fafafa;fill-opacity:1;fill-rule:nonzero;stroke:none"
           id="path106" /><g
           id="g108"
           transform="translate(146.5898,348.4438)"><path
             d="M 0,0 -15.5,52.223 H -36.41 L -20.91,0 Z"
             style="fill:#ffffff;fill-opacity:1;fill-rule:nonzero;stroke:none"
             id="path110" /></g><g
           id="g112"
           transform="translate(203.8623,348.4438)"><path
             d="M 0,0 -15.5,52.223 H -36.41 L -20.91,0 Z"
             style="fill:#ffffff;fill-opacity:1;fill-rule:nonzero;stroke:none"
             id="path114" /></g><g
           id="g116"
           transform="translate(121.7275,348.4438)"><path
             d="M 0,0 -15.5,52.223 H -36.41 L -20.91,0 Z"
             style="fill:#ffffff;fill-opacity:1;fill-rule:nonzero;stroke:none"
             id="path118" /></g><path
           d="M 382.7,282.346 H 289.484 V 429.117 H 382.7 Z"
           style="fill:#ececec;fill-opacity:1;fill-rule:nonzero;stroke:none"
           id="path120" /><path
           d="m 296.082,422.52 h 80.02 V 288.944 h -80.02 z"
           style="fill:#fafafa;fill-opacity:1;fill-rule:nonzero;stroke:none"
           id="path122" /><g
           id="g124"
           transform="translate(333.6079,288.9438)"><path
             d="M 0,0 H -2.688 L 4.967,133.709 H 7.655 Z"
             style="fill:#e1e1e1;fill-opacity:1;fill-rule:nonzero;stroke:none"
             id="path126" /></g><g
           id="g128"
           transform="translate(338.6196,392.6802)"><path
             d="m 0,0 v -3.856 l 37.482,9.88 v 1.359 z"
             style="fill:#e1e1e1;fill-opacity:1;fill-rule:nonzero;stroke:none"
             id="path130" /></g><g
           id="g132"
           transform="translate(336.0913,348.8604)"><path
             d="m 0,0 v -3.856 l 40.01,15.835 v 1.358 z"
             style="fill:#e1e1e1;fill-opacity:1;fill-rule:nonzero;stroke:none"
             id="path134" /></g><g
           id="g136"
           transform="translate(332.6323,303.6226)"><path
             d="m 0,0 v -5.322 l 43.469,24.049 v 1.359 z"
             style="fill:#e1e1e1;fill-opacity:1;fill-rule:nonzero;stroke:none"
             id="path138" /></g><g
           id="g140"
           transform="translate(337.0859,372.9312)"><path
             d="m 0,0 v -3.856 l -40.01,15.835 v 1.358 z"
             style="fill:#e1e1e1;fill-opacity:1;fill-rule:nonzero;stroke:none"
             id="path142" /></g><g
           id="g144"
           transform="translate(333.854,326.3701)"><path
             d="m 0,0 v -5.322 l -36.778,19.63 v 1.359 z"
             style="fill:#e1e1e1;fill-opacity:1;fill-rule:nonzero;stroke:none"
             id="path146" /></g><path
           d="m 296.082,422.52 h 0.994 V 288.944 h -0.994 z"
           style="fill:#e1e1e1;fill-opacity:1;fill-rule:nonzero;stroke:none"
           id="path148" /><path
           d="m 382.7,282.346 h 3.067 V 429.117 H 382.7 Z"
           style="fill:#e1e1e1;fill-opacity:1;fill-rule:nonzero;stroke:none"
           id="path150" /><g
           id="g152"
           transform="translate(419.3467,293.1216)"><path
             d="m 0,0 c 0,6.084 2.363,15.211 2.363,15.211 h -9.348 -9.348 c 0,0 2.362,-9.127 2.362,-15.211 0,-6.085 -7.396,-17.009 -7.396,-25.722 0,-8.712 7.46,-19.565 7.46,-19.565 h 6.922 6.921 c 0,0 7.46,10.853 7.46,19.565 C 7.396,-17.009 0,-6.085 0,0"
             style="fill:#e1e1e1;fill-opacity:1;fill-rule:nonzero;stroke:none"
             id="path154" /></g><g
           id="g156"
           transform="translate(431.3423,284.5835)"><path
             d="m 0,0 c 0,4.937 0.895,12.343 0.895,12.343 h -3.541 -3.541 c 0,0 0.895,-7.406 0.895,-12.343 0,-4.937 -2.802,-13.803 -2.802,-20.872 0,-7.07 2.826,-15.877 2.826,-15.877 h 2.622 2.622 c 0,0 2.826,8.807 2.826,15.877 C 2.802,-13.803 0,-4.937 0,0"
             style="fill:#f0f0f0;fill-opacity:1;fill-rule:nonzero;stroke:none"
             id="path158" /></g><path
           d="m 258.354,117.603 h 10.629 v 130.231 h -10.629 z"
           style="fill:#e7e7e7;fill-opacity:1;fill-rule:nonzero;stroke:none"
           id="path160" /><path
           d="m 255.509,117.603 h 6.261 v 130.231 h -6.261 z"
           style="fill:#f0f0f0;fill-opacity:1;fill-rule:nonzero;stroke:none"
           id="path162" /><path
           d="M 404.527,241.165 H 253.57 v 6.668 h 150.957 z"
           style="fill:#f0f0f0;fill-opacity:1;fill-rule:nonzero;stroke:none"
           id="path164" /><path
           d="m 455.78,117.603 h 10.629 V 247.834 H 455.78 Z"
           style="fill:#e7e7e7;fill-opacity:1;fill-rule:nonzero;stroke:none"
           id="path166" /><path
           d="m 453.787,117.603 h 6.261 v 130.231 h -6.261 z"
           style="fill:#f0f0f0;fill-opacity:1;fill-rule:nonzero;stroke:none"
           id="path168" /><path
           d="m 468.309,241.165 h -59.233 v 6.668 h 59.233 z"
           style="fill:#e7e7e7;fill-opacity:1;fill-rule:nonzero;stroke:none"
           id="path170" /><path
           d="m 405.433,117.603 h 10.629 v 130.231 h -10.629 z"
           style="fill:#e7e7e7;fill-opacity:1;fill-rule:nonzero;stroke:none"
           id="path172" /><path
           d="m 402.587,117.603 h 6.261 v 130.231 h -6.261 z"
           style="fill:#f0f0f0;fill-opacity:1;fill-rule:nonzero;stroke:none"
           id="path174" /><g
           id="g176"
           transform="translate(257.3564,247.8345)"><path
             d="M 0,0 71.692,-43.057 143.383,0 Z"
             style="fill:#fafafa;fill-opacity:1;fill-rule:nonzero;stroke:none"
             id="path178" /></g><g
           id="g180"
           transform="translate(264.0483,247.8345)"><path
             d="M 0,0 65,-39.038 130,0 Z"
             style="fill:#ececec;fill-opacity:1;fill-rule:nonzero;stroke:none"
             id="path182" /></g><g
           id="g184"
           transform="translate(414.1865,247.8345)"><path
             d="M 0,0 25.777,-39.038 51.553,0 Z"
             style="fill:#fafafa;fill-opacity:1;fill-rule:nonzero;stroke:none"
             id="path186" /></g><g
           id="g188"
           transform="translate(417.2593,247.8345)"><path
             d="M 0,0 23.371,-35.019 46.741,0 Z"
             style="fill:#ececec;fill-opacity:1;fill-rule:nonzero;stroke:none"
             id="path190" /></g></g></g><g
       id="g192"><g
         id="g194"
         clip-path="url(#clipPath198)"><g
           id="g200"
           transform="translate(315.4961,333.3062)"><path
             d="m 0,0 c 34.959,-1.821 77.654,-6.58 82.267,-56.305 3.742,-40.331 -36.019,-69.922 -66.922,-79.131 -35.587,-10.605 -64.242,15.83 -99.891,19.387 -36.314,3.624 -55.127,-43.886 -90.098,-38.014 -34.017,5.711 -53.841,58.037 -54.689,90.036 -1.038,39.227 22.041,71.142 45.976,94.937 25.507,25.358 58.936,44.521 97.115,26.657 C -50.874,41.02 -41.45,2.159 0,0"
             style="fill:#007cff;fill-opacity:1;fill-rule:nonzero;stroke:none"
             id="path202" /></g><g
           id="g204"><g
             id="g206" /><g
             id="g218"><g
               clip-path="url(#clipPath210)"
               opacity="0.899994"
               id="g216"><g
                 transform="translate(315.4961,333.3062)"
                 id="g214"><path
                   d="m 0,0 c 34.959,-1.821 77.654,-6.58 82.267,-56.305 3.742,-40.331 -36.019,-69.922 -66.922,-79.131 -35.587,-10.605 -64.242,15.83 -99.891,19.387 -36.314,3.624 -55.127,-43.886 -90.098,-38.014 -34.017,5.711 -53.841,58.037 -54.689,90.036 -1.038,39.227 22.041,71.142 45.976,94.937 25.507,25.358 58.936,44.521 97.115,26.657 C -50.874,41.02 -41.45,2.159 0,0"
                   style="fill:#ffffff;fill-opacity:1;fill-rule:nonzero;stroke:none"
                   id="path212" /></g></g></g></g></g></g><g
       id="g220"><g
         id="g222"
         clip-path="url(#clipPath226)"><g
           id="g228"
           transform="translate(443.8892,83.7617)"><path
             d="m 0,0 c 0,-6.254 -86.807,-11.324 -193.889,-11.324 -107.082,0 -193.889,5.07 -193.889,11.324 0,6.253 86.807,11.323 193.889,11.323 C -86.807,11.323 0,6.253 0,0"
             style="fill:#f5f5f5;fill-opacity:1;fill-rule:nonzero;stroke:none"
             id="path230" /></g></g></g><g
       id="g232"
       transform="translate(201.7749,92.9751)"><path
         d="m 0,0 -8.04,2.641 3.977,19.32 8.039,-2.641 z"
         style="fill:#ffb670;fill-opacity:1;fill-rule:nonzero;stroke:none"
         id="path234" /></g><g
       id="g236"
       transform="translate(271.7061,92.8765)"><path
         d="m 0,0 h -8.462 l -2.107,19.596 h 8.462 z"
         style="fill:#ffb670;fill-opacity:1;fill-rule:nonzero;stroke:none"
         id="path238" /></g><g
       id="g240"><g
         id="g242"
         clip-path="url(#clipPath246)"><g
           id="g248"
           transform="translate(262.5483,93.856)"><path
             d="m 0,0 h 10.316 c 0.347,0 0.646,-0.24 0.721,-0.578 l 1.671,-7.521 c 0.174,-0.78 -0.439,-1.519 -1.238,-1.505 -3.319,0.057 -5.741,0.251 -9.922,0.251 -2.572,0 -10.329,-0.267 -13.881,-0.267 -3.473,0 -4.015,3.513 -2.561,3.83 6.52,1.427 11.433,3.394 13.52,5.27 C -0.997,-0.182 -0.506,0 0,0"
             style="fill:#1a2e35;fill-opacity:1;fill-rule:nonzero;stroke:none"
             id="path250" /></g><g
           id="g252"
           transform="translate(193.8789,96.8911)"><path
             d="M 0,0 8.909,-2.456 C 9.242,-2.547 9.467,-2.858 9.45,-3.204 l -0.387,-7.695 c -0.041,-0.798 -0.808,-1.353 -1.574,-1.128 -3.198,0.94 -7.79,2.408 -11.829,3.522 -4.723,1.301 -5.601,1.751 -11.14,3.277 -3.35,0.923 -3.346,4.565 -1.859,4.485 6.766,-0.362 8.747,-1.232 15.198,0.649 C -1.439,0.11 -0.704,0.194 0,0"
             style="fill:#1a2e35;fill-opacity:1;fill-rule:nonzero;stroke:none"
             id="path254" /></g><g
           id="g256"
           transform="translate(235.563,349.9741)"><path
             d="m 0,0 c -0.539,-0.705 -0.957,-1.224 -1.435,-1.81 -0.461,-0.572 -0.941,-1.118 -1.42,-1.664 -0.961,-1.088 -1.943,-2.15 -2.949,-3.193 -2.001,-2.096 -4.141,-4.07 -6.398,-5.96 -4.544,-3.729 -9.565,-7.182 -15.749,-9.364 -1.541,-0.539 -3.166,-0.969 -4.868,-1.251 -0.427,-0.067 -0.849,-0.14 -1.281,-0.195 l -1.316,-0.117 c -0.36,-0.046 -1.046,-0.051 -1.655,-0.035 -0.564,0.038 -1.138,0.088 -1.634,0.176 -2.022,0.341 -3.608,0.963 -5.096,1.598 -1.479,0.643 -2.824,1.361 -4.103,2.129 -2.563,1.519 -4.888,3.195 -7.107,4.968 -2.228,1.78 -4.291,3.626 -6.314,5.702 l 3.835,5.065 c 4.697,-2.335 9.504,-4.792 14.103,-6.566 1.151,-0.428 2.282,-0.821 3.345,-1.118 1.053,-0.298 2.079,-0.456 2.746,-0.469 0.174,-0.01 0.28,0.019 0.391,0.022 0.068,0.035 0.061,0.024 0.371,0.082 l 0.703,0.117 0.718,0.174 c 0.474,0.091 0.968,0.291 1.452,0.425 0.493,0.2 0.98,0.348 1.477,0.579 1.986,0.824 3.989,1.974 5.934,3.33 1.965,1.32 3.87,2.862 5.728,4.496 1.866,1.627 3.658,3.391 5.421,5.193 0.877,0.905 1.738,1.831 2.572,2.772 l 1.237,1.412 1.137,1.337 z"
             style="fill:#ffb670;fill-opacity:1;fill-rule:nonzero;stroke:none"
             id="path258" /></g><g
           id="g260"
           transform="translate(240.2056,354.1646)"><path
             d="M 0,0 C 0.627,-8.066 -17.537,-24.526 -17.537,-24.526 L -33.593,-10.6 c 0,0 6.762,7.159 14.355,14.362 C -14.014,8.718 -0.679,8.726 0,0"
             style="fill:#ffffff;fill-opacity:1;fill-rule:nonzero;stroke:none"
             id="path262" /></g><g
           id="g264"><g
             id="g266" /><g
             id="g278"><g
               clip-path="url(#clipPath270)"
               opacity="0.399994"
               id="g276"><g
                 transform="translate(240.2056,354.1646)"
                 id="g274"><path
                   d="M 0,0 C 0.627,-8.066 -17.537,-24.526 -17.537,-24.526 L -33.593,-10.6 c 0,0 6.762,7.159 14.355,14.362 C -14.014,8.718 -0.679,8.726 0,0"
                   style="fill:#007cff;fill-opacity:1;fill-rule:nonzero;stroke:none"
                   id="path272" /></g></g></g></g><g
           id="g280"><g
             id="g282" /><g
             id="g294"><g
               clip-path="url(#clipPath286)"
               opacity="0.199997"
               id="g292"><g
                 transform="translate(232.0239,350.0186)"
                 id="g290"><path
                   d="m 0,0 c -7.468,-0.678 -12.236,-6.683 -14.323,-13.311 -0.226,-0.743 -0.43,-1.496 -0.592,-2.25 l 5.563,-4.82 c 0,0 8.265,7.49 13.452,14.839 C 4.358,-2.066 3.368,0.302 0,0"
                   style="fill:#000000;fill-opacity:1;fill-rule:nonzero;stroke:none"
                   id="path288" /></g></g></g></g><g
           id="g296"
           transform="translate(180.0273,342.4609)"><path
             d="M 0,0 -2.747,6.98 -12.129,4.1 c 0,0 3.186,-3.453 6.721,-5.851 z"
             style="fill:#ffb670;fill-opacity:1;fill-rule:nonzero;stroke:none"
             id="path298" /></g><g
           id="g300"
           transform="translate(172.5454,354.8945)"><path
             d="m 0,0 -7.734,-3.103 3.087,-5.23 9.382,2.879 z"
             style="fill:#ffb670;fill-opacity:1;fill-rule:nonzero;stroke:none"
             id="path302" /></g><g
           id="g304"><g
             id="g306" /><g
             id="g318"><g
               clip-path="url(#clipPath310)"
               opacity="0.199997"
               id="g316"><g
                 transform="translate(197.7119,114.9302)"
                 id="g314"><path
                   d="M 0,0 -2.389,-11.597 5.77,-13.678 8.042,-2.642 Z"
                   style="fill:#000000;fill-opacity:1;fill-rule:nonzero;stroke:none"
                   id="path312" /></g></g></g></g><g
           id="g320"><g
             id="g322" /><g
             id="g334"><g
               clip-path="url(#clipPath326)"
               opacity="0.199997"
               id="g332"><g
                 transform="translate(269.6016,112.4673)"
                 id="g330"><path
                   d="m 0,0 h -8.465 l 1.09,-10.101 H 1.09 Z"
                   style="fill:#000000;fill-opacity:1;fill-rule:nonzero;stroke:none"
                   id="path328" /></g></g></g></g><g
           id="g336"
           transform="translate(274.5952,358.0684)"><path
             d="m 0,0 c -2.61,-9.351 -4.278,-18.873 -5.377,-27.835 -0.8,-6.558 -1.281,-12.815 -1.579,-18.49 -0.703,-13.301 -0.411,-23.443 -0.806,-26.878 -6.617,0.459 -31.553,2.193 -45.149,3.145 -6.149,48.135 5.592,72.935 5.592,72.935 0,0 4.998,0.997 10.807,1.336 0.764,0.049 1.543,0.076 2.333,0.092 5.114,0.108 13.45,-0.659 19.196,-1.336 1.208,-0.144 2.43,-0.321 3.617,-0.512 C -5.32,1.473 0,0 0,0"
             style="fill:#ffffff;fill-opacity:1;fill-rule:nonzero;stroke:none"
             id="path338" /></g><g
           id="g340"><g
             id="g342" /><g
             id="g354"><g
               clip-path="url(#clipPath346)"
               opacity="0.399994"
               id="g352"><g
                 transform="translate(274.5952,358.0684)"
                 id="g350"><path
                   d="m 0,0 c -2.61,-9.351 -4.278,-18.873 -5.377,-27.835 -0.8,-6.558 -1.281,-12.815 -1.579,-18.49 -0.703,-13.301 -0.411,-23.443 -0.806,-26.878 -6.617,0.459 -31.553,2.193 -45.149,3.145 -6.149,48.135 5.592,72.935 5.592,72.935 0,0 4.998,0.997 10.807,1.336 0.764,0.049 1.543,0.076 2.333,0.092 5.114,0.108 13.45,-0.659 19.196,-1.336 1.208,-0.144 2.43,-0.321 3.617,-0.512 C -5.32,1.473 0,0 0,0"
                   style="fill:#007cff;fill-opacity:1;fill-rule:nonzero;stroke:none"
                   id="path348" /></g></g></g></g><g
           id="g356"><g
             id="g358" /><g
             id="g370"><g
               clip-path="url(#clipPath362)"
               opacity="0.199997"
               id="g368"><g
                 transform="translate(263.1943,345.8901)"
                 id="g366"><path
                   d="m 0,0 c -0.025,-7.566 2.063,-13.96 5.589,-19.564 0.127,1.288 0.276,2.589 0.435,3.903 0.602,4.927 1.38,10.028 2.41,15.18 z"
                   style="fill:#000000;fill-opacity:1;fill-rule:nonzero;stroke:none"
                   id="path364" /></g></g></g></g><g
           id="g372"
           transform="translate(259.2163,382.7812)"><path
             d="m 0,0 c -1.642,-6.091 -3.64,-17.322 0.393,-21.744 -3.395,-3.041 -8.281,-5.489 -15.208,-4.855 -5.305,0.486 -5.313,4.219 -3.985,6.194 7.001,1.164 7.18,6.285 6.316,11.167 z"
             style="fill:#ffb670;fill-opacity:1;fill-rule:nonzero;stroke:none"
             id="path374" /></g><g
           id="g376"><g
             id="g378" /><g
             id="g390"><g
               clip-path="url(#clipPath382)"
               opacity="0.199997"
               id="g388"><g
                 transform="translate(254.126,379.0117)"
                 id="g386"><path
                   d="m 0,0 -7.389,-5.463 c 0.209,-1.156 0.353,-2.323 0.354,-3.448 2.658,0.197 6.473,2.832 6.945,5.567 C 0.145,-1.979 0.18,-0.655 0,0"
                   style="fill:#000000;fill-opacity:1;fill-rule:nonzero;stroke:none"
                   id="path384" /></g></g></g></g><g
           id="g392"
           transform="translate(245.7983,391.8867)"><path
             d="M 0,0 C -2.005,-2.827 -7.244,2.38 -7.053,7.057 0.554,8.064 -3.077,13.619 3.851,12.196 9.589,11.017 2.194,3.094 0,0"
             style="fill:#1a2e35;fill-opacity:1;fill-rule:nonzero;stroke:none"
             id="path394" /></g><g
           id="g396"
           transform="translate(264.7437,390.0581)"><path
             d="m 0,0 c -2.545,-8.003 -3.628,-12.817 -8.784,-15.956 -7.755,-4.722 -16.852,1.526 -16.749,10.129 0.092,7.743 4.239,19.53 13.01,20.762 C -3.882,16.149 2.545,8.003 0,0"
             style="fill:#ffb670;fill-opacity:1;fill-rule:nonzero;stroke:none"
             id="path398" /></g><g
           id="g400"
           transform="translate(259.938,382.7812)"><path
             d="m 0,0 c 0,0 -0.705,3.582 -0.329,6.006 0.357,2.299 1.471,4.535 1.471,4.535 0,0 -4.786,2.831 -4.896,6.241 0,0 -8.567,-2.528 -13.132,1.322 -4.566,3.851 -0.49,8.306 -2.83,10.011 5.594,0.548 7.299,-2.86 10.837,-2.117 3.406,0.714 0.408,3.231 0.879,5.968 C 2.671,22.774 7.315,27.089 12.49,21.83 15.797,18.468 12.321,12.164 12.321,12.164 12.321,12.164 17.602,3.183 0,0"
             style="fill:#1a2e35;fill-opacity:1;fill-rule:nonzero;stroke:none"
             id="path402" /></g><g
           id="g404"
           transform="translate(270.561,395.1484)"><path
             d="M 0,0 C 0,0 5.24,-1.076 5.381,4.408 8.083,-1.18 4.703,-2.016 0,0"
             style="fill:#1a2e35;fill-opacity:1;fill-rule:nonzero;stroke:none"
             id="path406" /></g><g
           id="g408"
           transform="translate(246.918,382.4272)"><path
             d="M 0,0 C 0.001,0 0.003,0 0.004,-0.001 3.363,-0.824 5.466,1.102 5.554,1.184 5.641,1.266 5.645,1.402 5.564,1.489 5.482,1.576 5.346,1.581 5.259,1.5 5.239,1.481 3.231,-0.347 0.107,0.418 -0.008,0.447 -0.125,0.376 -0.153,0.26 -0.182,0.146 -0.113,0.03 0,0"
             style="fill:#1a2e35;fill-opacity:1;fill-rule:nonzero;stroke:none"
             id="path410" /></g><g
           id="g412"
           transform="translate(266.1597,381.2192)"><path
             d="m 0,0 c -1.623,-1.579 -3.824,-2.26 -5.685,-2.204 -2.797,0.084 -3.365,2.787 -1.892,4.993 1.326,1.985 4.38,4.333 6.854,3.176 C 1.713,4.825 1.856,1.805 0,0"
             style="fill:#ffb670;fill-opacity:1;fill-rule:nonzero;stroke:none"
             id="path414" /></g><g
           id="g416"
           transform="translate(193.0786,107.4995)"><path
             d="m 0,0 13.815,-3.8 c 0,0 17.299,54.534 21.55,84.484 1.127,7.942 2.866,19.108 5.521,31.01 3.352,14.996 7.557,31.211 10.999,43.909 3.632,13.373 6.397,22.838 6.397,22.838 L 28.6,180.51 c 0,0 -12.151,-66.485 -14.985,-92.155 C 10.664,61.664 0,0 0,0"
             style="fill:#007cff;fill-opacity:1;fill-rule:nonzero;stroke:none"
             id="path418" /></g><g
           id="g420"><g
             id="g422" /><g
             id="g434"><g
               clip-path="url(#clipPath426)"
               opacity="0.300003"
               id="g432"><g
                 transform="translate(193.0786,107.4995)"
                 id="g430"><path
                   d="m 0,0 13.815,-3.8 c 0,0 17.299,54.534 21.55,84.484 1.127,7.942 2.866,19.108 5.521,31.01 3.352,14.996 7.557,31.211 10.999,43.909 3.632,13.373 6.397,22.838 6.397,22.838 L 28.6,180.51 c 0,0 -12.151,-66.485 -14.985,-92.155 C 10.664,61.664 0,0 0,0"
                   style="fill:#000000;fill-opacity:1;fill-rule:nonzero;stroke:none"
                   id="path428" /></g></g></g></g><g
           id="g436"><g
             id="g438" /><g
             id="g450"><g
               clip-path="url(#clipPath442)"
               opacity="0.199997"
               id="g448"><g
                 transform="translate(233.9648,219.1938)"
                 id="g446"><path
                   d="M 0,0 C 3.352,14.996 7.557,31.211 10.999,43.909 L 7.918,50.542 C 0.556,41.793 -1.424,14.712 0,0"
                   style="fill:#000000;fill-opacity:1;fill-rule:nonzero;stroke:none"
                   id="path444" /></g></g></g></g><g
           id="g452"
           transform="translate(237.6929,286.8936)"><path
             d="m 0,0 c 0,0 3.203,-72.446 6.776,-96.981 3.912,-26.869 13.847,-85.59 13.847,-85.59 h 15.499 c 0,0 -5.128,61.791 -7.393,88.167 -2.581,30.045 0.405,92.371 0.405,92.371 z"
             style="fill:#007cff;fill-opacity:1;fill-rule:nonzero;stroke:none"
             id="path454" /></g><g
           id="g456"><g
             id="g458" /><g
             id="g470"><g
               clip-path="url(#clipPath462)"
               opacity="0.300003"
               id="g468"><g
                 transform="translate(237.6929,286.8936)"
                 id="g466"><path
                   d="m 0,0 c 0,0 3.203,-72.446 6.776,-96.981 3.912,-26.869 13.847,-85.59 13.847,-85.59 h 15.499 c 0,0 -5.128,61.791 -7.393,88.167 -2.581,30.045 0.405,92.371 0.405,92.371 z"
                   style="fill:#000000;fill-opacity:1;fill-rule:nonzero;stroke:none"
                   id="path464" /></g></g></g></g><g
           id="g472"
           transform="translate(256.4609,103.9873)"><path
             d="M 0,0 H 18.25 V 5.452 L -2.151,5.807 Z"
             style="fill:#007cff;fill-opacity:1;fill-rule:nonzero;stroke:none"
             id="path474" /></g><g
           id="g476"
           transform="translate(192.124,107.417)"><path
             d="M 0,0 15.592,-4.297 17.84,1.076 0.064,6.003 Z"
             style="fill:#007cff;fill-opacity:1;fill-rule:nonzero;stroke:none"
             id="path478" /></g><g
           id="g480"
           transform="translate(251.8418,390.8892)"><path
             d="m 0,0 c -0.167,-0.662 -0.652,-1.11 -1.085,-1.001 -0.433,0.108 -0.648,0.733 -0.482,1.395 0.167,0.662 0.652,1.11 1.085,1.002 C -0.049,1.287 0.167,0.662 0,0"
             style="fill:#1a2e35;fill-opacity:1;fill-rule:nonzero;stroke:none"
             id="path482" /></g><g
           id="g484"
           transform="translate(244.3604,392.772)"><path
             d="m 0,0 c -0.167,-0.662 -0.652,-1.11 -1.085,-1.001 -0.433,0.108 -0.648,0.733 -0.482,1.396 0.167,0.661 0.652,1.109 1.086,1.001 C -0.049,1.287 0.167,0.662 0,0"
             style="fill:#1a2e35;fill-opacity:1;fill-rule:nonzero;stroke:none"
             id="path486" /></g><g
           id="g488"
           transform="translate(246.6558,391.8442)"><path
             d="M 0,0 C 0,0 -2.466,-3.44 -4.586,-4.865 -3.69,-6.253 -1.442,-6.11 -1.442,-6.11 Z"
             style="fill:#ff8a35;fill-opacity:1;fill-rule:nonzero;stroke:none"
             id="path490" /></g><g
           id="g492"
           transform="translate(254.7739,392.7231)"><path
             d="M 0,0 C -0.146,0.01 -0.281,0.1 -0.342,0.244 -1.039,1.89 -2.491,2.166 -2.505,2.168 -2.723,2.207 -2.869,2.416 -2.83,2.633 -2.791,2.851 -2.591,3 -2.364,2.958 -2.288,2.944 -0.469,2.598 0.396,0.556 0.483,0.353 0.387,0.117 0.184,0.031 0.124,0.005 0.061,-0.004 0,0"
             style="fill:#1a2e35;fill-opacity:1;fill-rule:nonzero;stroke:none"
             id="path494" /></g><g
           id="g496"
           transform="translate(241.8018,396.1548)"><path
             d="M 0,0 C -0.082,0.006 -0.163,0.037 -0.229,0.093 -0.399,0.236 -0.421,0.489 -0.279,0.658 1.147,2.355 2.986,2.157 3.065,2.144 3.285,2.117 3.441,1.917 3.415,1.697 3.387,1.478 3.178,1.322 2.97,1.348 2.907,1.35 1.476,1.5 0.335,0.143 0.25,0.041 0.124,-0.008 0,0"
             style="fill:#1a2e35;fill-opacity:1;fill-rule:nonzero;stroke:none"
             id="path498" /></g><g
           id="g500"
           transform="translate(258.4932,94.1294)"><path
             d="m 0,0 c -0.105,0 -0.193,-0.016 -0.26,-0.05 -0.054,-0.028 -0.117,-0.08 -0.127,-0.236 -0.02,-0.318 0.069,-0.557 0.272,-0.727 C 0.349,-1.402 1.453,-1.455 2.89,-1.166 1.935,-0.613 0.648,0 0,0 m 1.257,-1.751 c -0.644,0 -1.246,0.109 -1.63,0.431 -0.303,0.255 -0.442,0.611 -0.415,1.059 0.021,0.334 0.199,0.492 0.344,0.567 C 0.496,0.789 3.222,-0.891 3.53,-1.083 3.599,-1.126 3.635,-1.206 3.622,-1.286 3.609,-1.365 3.549,-1.429 3.471,-1.448 2.883,-1.589 2.04,-1.751 1.257,-1.751"
             style="fill:#007cff;fill-opacity:1;fill-rule:nonzero;stroke:none"
             id="path502" /></g><g
           id="g504"
           transform="translate(260.209,96.1064)"><path
             d="M 0,0 C -0.03,0 -0.06,-0.002 -0.091,-0.006 -0.351,-0.038 -0.374,-0.157 -0.383,-0.208 -0.489,-0.765 0.589,-2.167 1.459,-2.828 1.361,-2.114 1.091,-0.691 0.46,-0.176 0.316,-0.058 0.165,0 0,0 m 1.708,-3.43 c -0.033,0 -0.066,0.008 -0.096,0.023 -0.875,0.476 -2.569,2.331 -2.389,3.274 0.032,0.171 0.158,0.466 0.637,0.526 C 0.169,0.429 0.458,0.344 0.714,0.134 1.697,-0.669 1.9,-3.111 1.908,-3.214 1.913,-3.288 1.879,-3.358 1.817,-3.398 1.784,-3.419 1.746,-3.43 1.708,-3.43"
             style="fill:#007cff;fill-opacity:1;fill-rule:nonzero;stroke:none"
             id="path506" /></g><g
           id="g508"
           transform="translate(188.7583,98.5332)"><path
             d="m 0,0 c -0.02,-0.002 -0.039,-0.005 -0.056,-0.009 -0.09,-0.022 -0.143,-0.074 -0.179,-0.173 -0.092,-0.256 -0.072,-0.48 0.061,-0.685 0.38,-0.583 1.7,-1.031 3.584,-1.229 C 2.274,-1.111 0.66,0.072 0,0 M 4.016,-2.547 C 4.003,-2.548 3.992,-2.549 3.979,-2.548 c -1.386,0.1 -3.813,0.424 -4.488,1.462 -0.204,0.313 -0.239,0.663 -0.103,1.04 0.08,0.225 0.24,0.372 0.461,0.426 C 0.982,0.646 3.812,-1.908 4.13,-2.201 4.192,-2.259 4.211,-2.35 4.178,-2.428 4.149,-2.495 4.086,-2.54 4.016,-2.547"
             style="fill:#007cff;fill-opacity:1;fill-rule:nonzero;stroke:none"
             id="path510" /></g><g
           id="g512"
           transform="translate(192.1934,100.7808)"><path
             d="M 0,0 C -0.014,0.014 -0.028,0.027 -0.042,0.039 -0.114,0.097 -0.187,0.107 -0.288,0.075 -0.547,-0.008 -0.712,-0.16 -0.794,-0.391 -1.025,-1.046 -0.577,-2.367 0.414,-3.981 0.502,-2.481 0.458,-0.48 0,0 m 0.424,-4.737 c -0.008,0.009 -0.016,0.018 -0.023,0.028 -0.764,1.162 -1.985,3.284 -1.573,4.452 0.124,0.352 0.381,0.592 0.762,0.714 C -0.182,0.53 0.032,0.493 0.209,0.351 1.11,-0.386 0.807,-4.186 0.768,-4.617 0.76,-4.702 0.7,-4.772 0.617,-4.793 0.546,-4.811 0.473,-4.788 0.424,-4.737"
             style="fill:#007cff;fill-opacity:1;fill-rule:nonzero;stroke:none"
             id="path514" /></g><g
           id="g516"
           transform="translate(275.8545,353.1982)"><path
             d="m 0,0 c 1.95,-2.748 3.605,-5.411 5.305,-8.177 1.688,-2.745 3.249,-5.572 4.769,-8.437 2.982,-5.772 5.722,-11.724 7.639,-18.367 0.23,-0.84 0.455,-1.681 0.648,-2.551 0.105,-0.426 0.197,-0.865 0.281,-1.312 l 0.129,-0.664 0.066,-0.343 0.082,-0.535 c 0.331,-2.816 -0.117,-4.885 -0.608,-6.775 -1.04,-3.729 -2.552,-6.757 -4.174,-9.688 -1.63,-2.909 -3.412,-5.635 -5.309,-8.256 -1.902,-2.633 -3.866,-5.122 -6.069,-7.572 l -5.201,3.649 c 2.707,5.433 5.467,11 7.586,16.46 0.535,1.361 1.005,2.724 1.412,4.051 0.416,1.321 0.746,2.625 0.922,3.796 0.183,1.148 0.164,2.234 0.031,2.519 -0.008,0.014 -0.013,0.027 -0.018,0.041 l -0.062,0.229 -0.13,0.478 c -0.082,0.317 -0.173,0.637 -0.279,0.962 -0.19,0.645 -0.417,1.299 -0.645,1.953 -1.892,5.268 -4.616,10.618 -7.543,15.841 -1.456,2.627 -3.02,5.212 -4.574,7.806 -1.552,2.568 -3.242,5.182 -4.809,7.598 z"
             style="fill:#ffb670;fill-opacity:1;fill-rule:nonzero;stroke:none"
             id="path518" /></g><g
           id="g520"
           transform="translate(274.5952,358.0684)"><path
             d="M 0,0 C 7.931,-1.6 14.888,-20.998 14.888,-20.998 L -1.664,-34.481 c 0,0 -5.423,9.86 -9.762,19.374 C -16.152,-4.744 -9.607,1.937 0,0"
             style="fill:#ffffff;fill-opacity:1;fill-rule:nonzero;stroke:none"
             id="path522" /></g><g
           id="g524"><g
             id="g526" /><g
             id="g538"><g
               clip-path="url(#clipPath530)"
               opacity="0.399994"
               id="g536"><g
                 transform="translate(274.5952,358.0684)"
                 id="g534"><path
                   d="M 0,0 C 7.931,-1.6 14.888,-20.998 14.888,-20.998 L -1.664,-34.481 c 0,0 -5.423,9.86 -9.762,19.374 C -16.152,-4.744 -9.607,1.937 0,0"
                   style="fill:#007cff;fill-opacity:1;fill-rule:nonzero;stroke:none"
                   id="path532" /></g></g></g></g><g
           id="g540"
           transform="translate(160.856,315.918)"><path
             d="M 0,0 -0.954,0.265 3.039,14.683 3.993,14.418 Z"
             style="fill:#007cff;fill-opacity:1;fill-rule:nonzero;stroke:none"
             id="path542" /></g><g
           id="g544"
           transform="translate(157.6562,304.3638)"><path
             d="M 0,0 -0.954,0.265 0.773,6.5 1.727,6.235 Z"
             style="fill:#007cff;fill-opacity:1;fill-rule:nonzero;stroke:none"
             id="path546" /></g><g
           id="g548"
           transform="translate(241.8154,231.2949)"><path
             d="m 0,0 -83.134,23.022 c -6.291,1.742 -10.013,8.315 -8.271,14.607 l 23.022,83.134 c 1.742,6.292 8.315,10.014 14.607,8.272 l 83.134,-23.022 c 6.291,-1.742 10.014,-8.316 8.271,-14.607 L 14.607,8.271 C 12.865,1.98 6.292,-1.742 0,0"
             style="fill:#007cff;fill-opacity:1;fill-rule:nonzero;stroke:none"
             id="path550" /></g><g
           id="g552"
           transform="translate(221.5542,314.7852)"><path
             d="M 0,0 C -0.437,0 -0.881,0.058 -1.323,0.181 -3.955,0.91 -5.498,3.634 -4.769,6.267 l 3.989,14.404 c 0.729,2.633 3.455,4.176 6.086,3.447 2.632,-0.729 4.175,-3.454 3.446,-6.086 L 4.763,3.627 C 4.157,1.436 2.167,0 0,0"
             style="fill:#ffffff;fill-opacity:1;fill-rule:nonzero;stroke:none"
             id="path554" /></g><g
           id="g556"
           transform="translate(204.3159,254.5195)"><path
             d="m 0,0 c -0.262,0 -0.528,0.035 -0.793,0.108 -1.58,0.438 -2.506,2.073 -2.068,3.652 l 3.989,14.405 c 0.438,1.579 2.071,2.503 3.652,2.068 1.579,-0.438 2.505,-2.072 2.068,-3.652 L 2.858,2.176 C 2.494,0.862 1.301,0 0,0"
             style="fill:#ffffff;fill-opacity:1;fill-rule:nonzero;stroke:none"
             id="path558" /></g><g
           id="g560"
           transform="translate(236.5264,306.5581)"><path
             d="m 0,0 c -0.517,0 -1.02,0.271 -1.292,0.753 -0.404,0.713 -0.154,1.618 0.56,2.022 l 13.006,7.365 c 0.713,0.404 1.618,0.153 2.022,-0.56 C 14.7,8.867 14.449,7.962 13.736,7.558 L 0.729,0.193 C 0.499,0.062 0.248,0 0,0"
             style="fill:#ffffff;fill-opacity:1;fill-rule:nonzero;stroke:none"
             id="path562" /></g><g
           id="g564"
           transform="translate(180.3271,272.7549)"><path
             d="m 0,0 c -1.207,0 -2.379,0.631 -3.016,1.756 -0.942,1.664 -0.357,3.777 1.307,4.719 l 13.006,7.365 c 1.665,0.943 3.776,0.357 4.719,-1.306 0.942,-1.664 0.357,-3.777 -1.307,-4.719 L 1.703,0.45 C 1.164,0.145 0.578,0 0,0"
             style="fill:#ffffff;fill-opacity:1;fill-rule:nonzero;stroke:none"
             id="path566" /></g><g
           id="g568"
           transform="translate(253.2529,283.2202)"><path
             d="m 0,0 c -0.175,0 -0.353,0.023 -0.529,0.072 l -14.405,3.99 c -1.053,0.292 -1.67,1.381 -1.378,2.434 0.291,1.053 1.383,1.669 2.434,1.379 L 0.527,3.886 C 1.58,3.594 2.197,2.504 1.906,1.451 1.663,0.575 0.867,0 0,0"
             style="fill:#ffffff;fill-opacity:1;fill-rule:nonzero;stroke:none"
             id="path570" /></g><g
           id="g572"
           transform="translate(191.0103,298.4785)"><path
             d="m 0,0 c -0.35,0 -0.705,0.046 -1.059,0.145 l -14.404,3.989 c -2.106,0.583 -3.341,2.763 -2.757,4.869 0.583,2.106 2.762,3.344 4.869,2.757 L 1.054,7.771 C 3.16,7.187 4.394,5.007 3.811,2.901 3.325,1.149 1.734,0 0,0"
             style="fill:#ffffff;fill-opacity:1;fill-rule:nonzero;stroke:none"
             id="path574" /></g><g
           id="g576"
           transform="translate(234.5249,258.7354)"><path
             d="M 0,0 C -0.862,0 -1.699,0.451 -2.154,1.254 L -9.52,14.261 c -0.672,1.188 -0.254,2.697 0.934,3.37 1.19,0.673 2.698,0.255 3.37,-0.933 L 2.149,3.692 C 2.822,2.503 2.404,0.994 1.216,0.321 0.831,0.104 0.413,0 0,0"
             style="fill:#ffffff;fill-opacity:1;fill-rule:nonzero;stroke:none"
             id="path578" /></g><g
           id="g580"
           transform="translate(202.7017,312.9575)"><path
             d="m 0,0 c -1.551,0 -3.058,0.812 -3.877,2.259 l -7.365,13.006 c -1.212,2.139 -0.46,4.856 1.679,6.067 2.141,1.21 4.856,0.459 6.067,-1.68 L 3.869,6.646 C 5.081,4.506 4.329,1.79 2.189,0.579 1.497,0.187 0.743,0 0,0"
             style="fill:#ffffff;fill-opacity:1;fill-rule:nonzero;stroke:none"
             id="path582" /></g><g
           id="g584"
           transform="translate(276.4146,286.1104)"><path
             d="m 0,0 -8.585,0.307 4.155,-9.979 c 0,0 7.367,1.362 7.081,5.346 z"
             style="fill:#ffb670;fill-opacity:1;fill-rule:nonzero;stroke:none"
             id="path586" /></g><g
           id="g588"
           transform="translate(262.0845,282.2979)"><path
             d="M 0,0 2.065,-7.631 9.9,-5.859 5.745,4.119 Z"
             style="fill:#ffb670;fill-opacity:1;fill-rule:nonzero;stroke:none"
             id="path590" /></g></g></g></g></svg>
